<svg width="38" height="38" viewBox="0 0 38 38" fill="none" xmlns="http://www.w3.org/2000/svg">
<path d="M19.099 3.26994C18.6404 3.06888 18.1888 3.20954 17.8982 3.50544C17.616 3.79288 17.4748 4.23158 17.5738 4.67389C17.73 5.37205 17.8125 6.0984 17.8125 6.8445C17.8125 8.54792 17.3832 9.74097 16.6445 10.73C15.8935 11.7354 14.8065 12.5539 13.434 13.4774C13.4125 13.4919 13.3924 13.5086 13.3741 13.527L13.2078 13.6945C10.2631 15.597 8.3125 18.9095 8.3125 22.6778C8.3125 28.5804 13.0975 33.3653 19 33.3653C24.9025 33.3653 29.6875 28.5804 29.6875 22.6778C29.6875 20.9448 29.2747 19.307 28.5417 17.8585C28.4821 17.7407 28.3676 17.6604 28.2365 17.6444C28.1055 17.6283 27.975 17.6788 27.8888 17.7788C27.7771 17.9082 27.6678 18.036 27.5601 18.1618C26.1695 19.7866 25.0472 21.0978 22.7464 21.6835C22.6486 21.7084 22.5878 21.6899 22.5447 21.663C22.4939 21.6313 22.4384 21.568 22.4003 21.4668C22.321 21.256 22.355 20.9872 22.5175 20.8111C23.7481 19.4769 24.6223 17.6659 24.9346 15.0897C25.5198 10.2638 23.3264 5.12338 19.099 3.26994Z" fill="#13E8D0"/>
</svg>
