<svg width="1920" height="305" viewBox="0 0 1920 305" fill="none" xmlns="http://www.w3.org/2000/svg">
<g filter="url(#filter0_f_6_2057)">
<path d="M0.5 125C34.6667 125.833 98.8699 149.384 141 187C197 237 298.667 210.833 358.5 193C410 173 500.556 193.096 541.5 218C638.5 277 731.694 198.675 849 187C954.5 176.5 984.772 203.09 1018 218C1057 235.5 1101 259.512 1194 263C1274 266 1358.8 255.6 1410 232C1474 202.5 1583.5 130 1608.5 111C1633.5 92 1701 49 1757 38.5C1813 28 1894 17 1927 38.5" stroke="#895CC7" stroke-width="5"/>
</g>
<path d="M0.5 125C34.6667 125.833 98.8699 149.384 141 187C197 237 298.667 210.833 358.5 193C418.5 177.5 477 175 541.5 218C635.966 280.977 731.694 198.675 849 187C954.5 176.5 984.772 203.09 1018 218C1057 235.5 1101 259.512 1194 263C1274 266 1358.8 255.6 1410 232C1474 202.5 1583.5 130 1608.5 111C1633.5 92 1701 49 1757 38.5C1813 28 1894 17 1927 38.5" stroke="#895CC7" stroke-width="5"/>
<circle cx="315.5" cy="202.5" r="42" fill="#895CC7" fill-opacity="0.2" stroke="#895CC7"/>
<circle cx="683.5" cy="230.5" r="42" fill="#895CC7" fill-opacity="0.2" stroke="#895CC7"/>
<circle cx="1226.5" cy="262.5" r="42" fill="#895CC7" fill-opacity="0.2" stroke="#895CC7"/>
<circle cx="1603.5" cy="112.5" r="42" fill="#895CC7" fill-opacity="0.2" stroke="#895CC7"/>
<g filter="url(#filter1_d_6_2057)">
<circle cx="316" cy="203" r="11" fill="#895CC7"/>
</g>
<g filter="url(#filter2_d_6_2057)">
<circle cx="684" cy="231" r="11" fill="#895CC7"/>
</g>
<g filter="url(#filter3_d_6_2057)">
<circle cx="1227" cy="263" r="11" fill="#895CC7"/>
</g>
<g filter="url(#filter4_d_6_2057)">
<circle cx="1604" cy="113" r="11" fill="#895CC7"/>
</g>
<path d="M316 202.5V103" stroke="url(#paint0_linear_6_2057)" stroke-width="3"/>
<path d="M1227 262.5V163" stroke="url(#paint1_linear_6_2057)" stroke-width="3"/>
<path d="M684 230.5L684 131" stroke="url(#paint2_linear_6_2057)" stroke-width="3"/>
<path d="M1604 112.5L1604 13" stroke="url(#paint3_linear_6_2057)" stroke-width="3"/>
<defs>
<filter id="filter0_f_6_2057" x="-22.5605" y="0.664062" width="1973.93" height="288.34" filterUnits="userSpaceOnUse" color-interpolation-filters="sRGB">
<feFlood flood-opacity="0" result="BackgroundImageFix"/>
<feBlend mode="normal" in="SourceGraphic" in2="BackgroundImageFix" result="shape"/>
<feGaussianBlur stdDeviation="11.5" result="effect1_foregroundBlur_6_2057"/>
</filter>
<filter id="filter1_d_6_2057" x="301" y="192" width="30" height="30" filterUnits="userSpaceOnUse" color-interpolation-filters="sRGB">
<feFlood flood-opacity="0" result="BackgroundImageFix"/>
<feColorMatrix in="SourceAlpha" type="matrix" values="0 0 0 0 0 0 0 0 0 0 0 0 0 0 0 0 0 0 127 0" result="hardAlpha"/>
<feOffset dy="4"/>
<feGaussianBlur stdDeviation="2"/>
<feComposite in2="hardAlpha" operator="out"/>
<feColorMatrix type="matrix" values="0 0 0 0 0 0 0 0 0 0 0 0 0 0 0 0 0 0 0.25 0"/>
<feBlend mode="normal" in2="BackgroundImageFix" result="effect1_dropShadow_6_2057"/>
<feBlend mode="normal" in="SourceGraphic" in2="effect1_dropShadow_6_2057" result="shape"/>
</filter>
<filter id="filter2_d_6_2057" x="669" y="220" width="30" height="30" filterUnits="userSpaceOnUse" color-interpolation-filters="sRGB">
<feFlood flood-opacity="0" result="BackgroundImageFix"/>
<feColorMatrix in="SourceAlpha" type="matrix" values="0 0 0 0 0 0 0 0 0 0 0 0 0 0 0 0 0 0 127 0" result="hardAlpha"/>
<feOffset dy="4"/>
<feGaussianBlur stdDeviation="2"/>
<feComposite in2="hardAlpha" operator="out"/>
<feColorMatrix type="matrix" values="0 0 0 0 0 0 0 0 0 0 0 0 0 0 0 0 0 0 0.25 0"/>
<feBlend mode="normal" in2="BackgroundImageFix" result="effect1_dropShadow_6_2057"/>
<feBlend mode="normal" in="SourceGraphic" in2="effect1_dropShadow_6_2057" result="shape"/>
</filter>
<filter id="filter3_d_6_2057" x="1212" y="252" width="30" height="30" filterUnits="userSpaceOnUse" color-interpolation-filters="sRGB">
<feFlood flood-opacity="0" result="BackgroundImageFix"/>
<feColorMatrix in="SourceAlpha" type="matrix" values="0 0 0 0 0 0 0 0 0 0 0 0 0 0 0 0 0 0 127 0" result="hardAlpha"/>
<feOffset dy="4"/>
<feGaussianBlur stdDeviation="2"/>
<feComposite in2="hardAlpha" operator="out"/>
<feColorMatrix type="matrix" values="0 0 0 0 0 0 0 0 0 0 0 0 0 0 0 0 0 0 0.25 0"/>
<feBlend mode="normal" in2="BackgroundImageFix" result="effect1_dropShadow_6_2057"/>
<feBlend mode="normal" in="SourceGraphic" in2="effect1_dropShadow_6_2057" result="shape"/>
</filter>
<filter id="filter4_d_6_2057" x="1589" y="102" width="30" height="30" filterUnits="userSpaceOnUse" color-interpolation-filters="sRGB">
<feFlood flood-opacity="0" result="BackgroundImageFix"/>
<feColorMatrix in="SourceAlpha" type="matrix" values="0 0 0 0 0 0 0 0 0 0 0 0 0 0 0 0 0 0 127 0" result="hardAlpha"/>
<feOffset dy="4"/>
<feGaussianBlur stdDeviation="2"/>
<feComposite in2="hardAlpha" operator="out"/>
<feColorMatrix type="matrix" values="0 0 0 0 0 0 0 0 0 0 0 0 0 0 0 0 0 0 0.25 0"/>
<feBlend mode="normal" in2="BackgroundImageFix" result="effect1_dropShadow_6_2057"/>
<feBlend mode="normal" in="SourceGraphic" in2="effect1_dropShadow_6_2057" result="shape"/>
</filter>
<linearGradient id="paint0_linear_6_2057" x1="316.5" y1="103" x2="316.5" y2="202.5" gradientUnits="userSpaceOnUse">
<stop stop-color="#895CC7" stop-opacity="0"/>
<stop offset="1" stop-color="#895CC7"/>
</linearGradient>
<linearGradient id="paint1_linear_6_2057" x1="1227.5" y1="163" x2="1227.5" y2="262.5" gradientUnits="userSpaceOnUse">
<stop stop-color="#895CC7" stop-opacity="0"/>
<stop offset="1" stop-color="#895CC7"/>
</linearGradient>
<linearGradient id="paint2_linear_6_2057" x1="684.5" y1="131" x2="684.5" y2="230.5" gradientUnits="userSpaceOnUse">
<stop stop-color="#895CC7" stop-opacity="0"/>
<stop offset="1" stop-color="#895CC7"/>
</linearGradient>
<linearGradient id="paint3_linear_6_2057" x1="1604.5" y1="13" x2="1604.5" y2="112.5" gradientUnits="userSpaceOnUse">
<stop stop-color="#895CC7" stop-opacity="0"/>
<stop offset="1" stop-color="#895CC7"/>
</linearGradient>
</defs>
</svg>
