<svg width="38" height="40" viewBox="0 0 38 40" fill="none" xmlns="http://www.w3.org/2000/svg">
<path d="M19.0013 0.75C14.1688 0.75 10.2513 4.66751 10.2513 9.5C10.2513 14.3325 14.1688 18.25 19.0013 18.25C23.8338 18.25 27.7513 14.3325 27.7513 9.5C27.7513 4.66751 23.8338 0.75 19.0013 0.75Z" fill="url(#paint0_linear_308_156)"/>
<path d="M9.66797 22.9167C4.83548 22.9167 0.917969 26.8342 0.917969 31.6667V34.4393C0.917969 36.1969 2.1917 37.6954 3.92627 37.9786C13.9102 39.6086 24.0924 39.6086 34.0763 37.9786C35.8109 37.6954 37.0846 36.1969 37.0846 34.4393V31.6667C37.0846 26.8342 33.1671 22.9167 28.3346 22.9167H27.5393C27.1088 22.9167 26.681 22.9847 26.2718 23.1184L24.2523 23.7778C20.8403 24.8919 17.1623 24.8919 13.7503 23.7778L11.7308 23.1184C11.3216 22.9847 10.8938 22.9167 10.4633 22.9167H9.66797Z" fill="url(#paint1_linear_308_156)"/>
<defs>
<linearGradient id="paint0_linear_308_156" x1="8.50098" y1="4" x2="37.001" y2="41" gradientUnits="userSpaceOnUse">
<stop stop-color="#81E4D9"/>
<stop offset="1" stop-color="#158F82"/>
</linearGradient>
<linearGradient id="paint1_linear_308_156" x1="8.50098" y1="4" x2="37.001" y2="41" gradientUnits="userSpaceOnUse">
<stop stop-color="#81E4D9"/>
<stop offset="1" stop-color="#158F82"/>
</linearGradient>
</defs>
</svg>
