<svg width="80" height="56" viewBox="0 0 80 56" fill="none" xmlns="http://www.w3.org/2000/svg">
<path d="M60.0007 10.25C56.5489 10.25 53.7507 13.0482 53.7507 16.5C53.7507 19.9518 56.5489 22.75 60.0007 22.75C63.4524 22.75 66.2507 19.9518 66.2507 16.5C66.2507 13.0482 63.4524 10.25 60.0007 10.25Z" fill="url(#paint0_linear_309_262)"/>
<path d="M53.334 26.0833C49.8822 26.0833 47.084 28.8816 47.084 32.3333V34.3138C47.084 35.5692 47.9938 36.6396 49.2328 36.8419C56.3642 38.0062 63.6372 38.0062 70.7685 36.8419C72.0075 36.6396 72.9173 35.5692 72.9173 34.3138V32.3333C72.9173 28.8816 70.1191 26.0833 66.6673 26.0833H66.0992C65.7917 26.0833 65.4862 26.132 65.1939 26.2274L63.7513 26.6984C61.3142 27.4942 58.6871 27.4942 56.25 26.6984L54.8074 26.2274C54.5151 26.132 54.2096 26.0833 53.9021 26.0833H53.334Z" fill="url(#paint1_linear_309_262)"/>
<path d="M20.0007 10.25C16.5489 10.25 13.7507 13.0482 13.7507 16.5C13.7507 19.9518 16.5489 22.75 20.0007 22.75C23.4524 22.75 26.2507 19.9518 26.2507 16.5C26.2507 13.0482 23.4524 10.25 20.0007 10.25Z" fill="url(#paint2_linear_309_262)"/>
<path d="M13.334 26.0833C9.8822 26.0833 7.08398 28.8816 7.08398 32.3333V34.3138C7.08398 35.5692 7.99379 36.6396 9.23277 36.8419C16.3642 38.0062 23.6372 38.0062 30.7685 36.8419C32.0075 36.6396 32.9173 35.5692 32.9173 34.3138V32.3333C32.9173 28.8816 30.1191 26.0833 26.6673 26.0833H26.0992C25.7917 26.0833 25.4862 26.132 25.1939 26.2274L23.7513 26.6984C21.3142 27.4942 18.6871 27.4942 16.25 26.6984L14.8074 26.2274C14.5151 26.132 14.2096 26.0833 13.9021 26.0833H13.334Z" fill="url(#paint3_linear_309_262)"/>
<path d="M40.0013 8.25C34.8927 8.25 30.7513 12.3914 30.7513 17.5C30.7513 22.6086 34.8927 26.75 40.0013 26.75C45.1099 26.75 49.2513 22.6086 49.2513 17.5C49.2513 12.3914 45.1099 8.25 40.0013 8.25ZM30.668 30.4167C25.5593 30.4167 21.418 34.558 21.418 39.6667V42.4393C21.418 44.4419 22.8693 46.1494 24.8457 46.4721C34.883 48.1108 45.1196 48.1108 55.1569 46.4721C57.1333 46.1494 58.5846 44.4419 58.5846 42.4393V39.6667C58.5846 34.558 54.4433 30.4167 49.3346 30.4167H48.5393C48.0561 30.4167 47.5759 30.4931 47.1166 30.6431L45.0971 31.3025C41.7859 32.3837 38.2167 32.3837 34.9055 31.3025L32.886 30.6431C32.4267 30.4931 31.9465 30.4167 31.4633 30.4167H30.668Z" fill="url(#paint4_linear_309_262)" stroke="#3C5165" stroke-linecap="round" stroke-linejoin="round"/>
<defs>
<linearGradient id="paint0_linear_309_262" x1="52.5004" y1="12.5714" x2="72.8576" y2="39" gradientUnits="userSpaceOnUse">
<stop stop-color="#81E4D9"/>
<stop offset="1" stop-color="#158F82"/>
</linearGradient>
<linearGradient id="paint1_linear_309_262" x1="52.5004" y1="12.5714" x2="72.8576" y2="39" gradientUnits="userSpaceOnUse">
<stop stop-color="#81E4D9"/>
<stop offset="1" stop-color="#158F82"/>
</linearGradient>
<linearGradient id="paint2_linear_309_262" x1="12.5004" y1="12.5714" x2="32.8576" y2="39" gradientUnits="userSpaceOnUse">
<stop stop-color="#81E4D9"/>
<stop offset="1" stop-color="#158F82"/>
</linearGradient>
<linearGradient id="paint3_linear_309_262" x1="12.5004" y1="12.5714" x2="32.8576" y2="39" gradientUnits="userSpaceOnUse">
<stop stop-color="#81E4D9"/>
<stop offset="1" stop-color="#158F82"/>
</linearGradient>
<linearGradient id="paint4_linear_309_262" x1="29.501" y1="12" x2="58.001" y2="49" gradientUnits="userSpaceOnUse">
<stop stop-color="#81E4D9"/>
<stop offset="1" stop-color="#158F82"/>
</linearGradient>
</defs>
</svg>
