<svg width="38" height="38" viewBox="0 0 38 38" fill="none" xmlns="http://www.w3.org/2000/svg">
<path d="M20.3699 4.74376C19.7597 3.69219 18.2411 3.69218 17.6309 4.74376L13.3337 12.1495C13.0322 12.669 12.5113 13.0235 11.9174 13.1132L3.86407 14.3295C2.51146 14.5338 2.037 16.2416 3.0904 17.1143L9.08979 22.0848C9.64513 22.5449 9.90625 23.2706 9.77135 23.9791L8.202 32.2205C7.95392 33.5233 9.32158 34.5356 10.4951 33.9177L18.0783 29.9248C18.6555 29.6209 19.3453 29.6209 19.9225 29.9248L27.5057 33.9177C28.6792 34.5356 30.0469 33.5233 29.7988 32.2205L28.2294 23.9791C28.0945 23.2706 28.3557 22.5449 28.911 22.0848L34.9104 17.1143C35.9638 16.2416 35.4893 14.5338 34.1367 14.3295L26.0834 13.1132C25.4895 13.0235 24.9686 12.669 24.6671 12.1495L20.3699 4.74376Z" fill="#13E8D0"/>
</svg>
