<svg width="129" height="120" viewBox="0 0 129 120" fill="none" xmlns="http://www.w3.org/2000/svg">
<g filter="url(#filter0_d_276_186)">
<path d="M69.0045 8.60509C66.9973 5.14597 62.002 5.14595 59.9948 8.60509L45.8591 32.9661C44.8676 34.6748 43.1538 35.8409 41.2003 36.136L14.7091 40.1372C10.2597 40.8092 8.699 46.4269 12.1641 49.2978L31.899 65.6479C33.7258 67.1614 34.5847 69.5487 34.141 71.8791L28.9786 98.9892C28.1626 103.275 32.6615 106.605 36.5216 104.572L61.4664 91.4375C63.365 90.4378 65.6343 90.4378 67.5329 91.4375L92.4777 104.572C96.3379 106.605 100.837 103.275 100.021 98.9892L94.8584 71.8791C94.4146 69.5487 95.2736 67.1614 97.1004 65.6479L116.835 49.2978C120.3 46.427 118.74 40.8092 114.29 40.1372L87.799 36.136C85.8456 35.8409 84.1318 34.6748 83.1402 32.9661L69.0045 8.60509Z" fill="url(#paint0_linear_276_186)"/>
</g>
<defs>
<filter id="filter0_d_276_186" x="0.273438" y="0.0107422" width="128.453" height="119.173" filterUnits="userSpaceOnUse" color-interpolation-filters="sRGB">
<feFlood flood-opacity="0" result="BackgroundImageFix"/>
<feColorMatrix in="SourceAlpha" type="matrix" values="0 0 0 0 0 0 0 0 0 0 0 0 0 0 0 0 0 0 127 0" result="hardAlpha"/>
<feOffset dy="4"/>
<feGaussianBlur stdDeviation="5"/>
<feComposite in2="hardAlpha" operator="out"/>
<feColorMatrix type="matrix" values="0 0 0 0 0 0 0 0 0 0 0 0 0 0 0 0 0 0 0.25 0"/>
<feBlend mode="normal" in2="BackgroundImageFix" result="effect1_dropShadow_276_186"/>
<feBlend mode="normal" in="SourceGraphic" in2="effect1_dropShadow_276_186" result="shape"/>
</filter>
<linearGradient id="paint0_linear_276_186" x1="30.6017" y1="6.75242" x2="131.84" y2="50.1541" gradientUnits="userSpaceOnUse">
<stop stop-color="#81C9E8"/>
<stop offset="1" stop-color="#41B6E8"/>
</linearGradient>
</defs>
</svg>
