<svg width="38" height="38" viewBox="0 0 38 38" fill="none" xmlns="http://www.w3.org/2000/svg">
<path fill-rule="evenodd" clip-rule="evenodd" d="M33.2656 16.1042L33.2697 21.8404C33.2293 22.3869 33.1772 22.9327 33.1135 23.4775C33.0069 24.3886 32.2663 25.1235 31.3363 25.2274C28.4233 25.553 25.409 25.553 22.496 25.2274C21.566 25.1235 20.8254 24.3886 20.7188 23.4775C20.3708 20.5024 20.3708 17.4969 20.7188 14.5218C20.8254 13.6108 21.566 12.8759 22.496 12.7719C25.409 12.4464 28.4233 12.4464 31.3363 12.7719C32.2663 12.8759 33.0069 13.6108 33.1135 14.5218C33.1751 15.0485 33.2258 15.576 33.2656 16.1042ZM26.9162 16.6247C25.6045 16.6247 24.5412 17.688 24.5412 18.9997C24.5412 20.3114 25.6045 21.3747 26.9162 21.3747C28.2278 21.3747 29.2912 20.3114 29.2912 18.9997C29.2912 17.688 28.2278 16.6247 26.9162 16.6247Z" fill="#13E8D0"/>
<path d="M32.3052 9.56257C32.5514 9.9889 32.0893 10.4663 31.6001 10.4116C28.5118 10.0665 25.3205 10.0665 22.2322 10.4116C20.2224 10.6362 18.597 12.2189 18.3599 14.2459C17.9905 17.4043 17.9905 20.595 18.3599 23.7534C18.597 25.7805 20.2224 27.3631 22.2322 27.5877C25.3205 27.9329 28.5118 27.9329 31.6001 27.5877C32.0926 27.5327 32.5584 28.0134 32.3098 28.4421C31.0771 30.5683 28.8792 32.0522 26.3253 32.3209L25.2932 32.4295C20.051 32.9812 14.7635 32.9448 9.52942 32.3211L8.84551 32.2396C6.02382 31.9033 3.78807 29.6988 3.41223 26.8821C2.71415 21.6503 2.71415 16.349 3.41223 11.1173C3.78807 8.3006 6.02382 6.09604 8.84551 5.7598L9.52942 5.6783C14.7635 5.05458 20.051 5.01821 25.2932 5.56985L26.3253 5.67846C28.8814 5.94744 31.0758 7.43357 32.3052 9.56257Z" fill="#13E8D0"/>
</svg>
