<svg width="24" height="24" viewBox="0 0 24 24" fill="none" xmlns="http://www.w3.org/2000/svg">
<path d="M12.75 7.81066L15.4697 10.5303C15.7626 10.8232 16.2374 10.8232 16.5303 10.5303C16.8232 10.2374 16.8232 9.76256 16.5303 9.46967L12.5303 5.46967C12.2374 5.17678 11.7626 5.17678 11.4697 5.46967L7.46967 9.46967C7.17678 9.76256 7.17678 10.2374 7.46967 10.5303C7.76256 10.8232 8.23744 10.8232 8.53033 10.5303L11.25 7.81066L11.25 17.5C11.25 17.9142 11.5858 18.25 12 18.25C12.4142 18.25 12.75 17.9142 12.75 17.5L12.75 7.81066Z" fill="#13E8D0"/>
<rect x="0.5" y="-0.5" width="23" height="23" rx="5.5" transform="matrix(1 0 0 -1 0 23)" stroke="#13E8D0"/>
</svg>
